#!OML:ASF F:\VICON\USERDATA\INSTALL\rory3\rory3.ASF
:FULLY-SPECIFIED
:DEGREES
17
root 0.994972 17.9078 -21.197 -3.464 -3.23411 2.04772
lowerback 12.157 -0.167469 -3.1418
upperback 0.235231 -0.563956 1.47706
thorax -6.53764 -0.15368 3.43727
lowerneck -18.1161 -2.53805 -1.91974
upperneck 19.8606 -2.98654 0.0173903
head 9.27545 -1.54127 -0.070906
rclavicle 1.05107e-014 -2.38542e-015
rhumerus -32.1673 -20.0889 -78.318
rradius 25.6896
rwrist 4.02003
rhand -19.1155 23.751
rfingers 7.12502
rthumb 7.19363 -6.10672
lclavicle 1.05107e-014 -2.38542e-015
lhumerus -27.553 -1.97294 81.1455
lradius 30.1327
lwrist 11.0842
lhand -31.2791 24.1515
lfingers 7.12502
lthumb -4.55266 54.0826
rfemur -30.6388 0.652798 20.1094
rtibia 43.7059
rfoot -8.07794 -10.9816
rtoes 1.62023
lfemur 2.01807 -2.14578 -27.5098
ltibia 22.5878
lfoot -15.9414 1.22003
ltoes 1.78411
18
root 0.984429 17.9097 -21.0333 -3.30481 -3.18179 2.18027
lowerback 11.9891 -0.189293 -3.21679
upperback 0.303796 -0.603918 1.38997
thorax -6.36717 -0.177125 3.3904
lowerneck -18.4217 -2.50917 -1.8434
upperneck 19.8677 -2.98499 0.120144
head 9.33376 -1.52175 -0.0519107
rclavicle 4.29872e-015 2.26615e-014
rhumerus -32.2702 -20.2296 -78.3754
rradius 25.5998
rwrist 3.90494
rhand -18.9171 23.8276
rfingers 7.12502
rthumb 7.38518 -6.02349
lclavicle 4.29872e-015 2.26615e-014
lhumerus -27.0578 -2.09474 80.8507
lradius 30.2105
lwrist 10.9786
lhand -31.2757 21.9515
lfingers 7.12502
lthumb -4.54932 51.8826
rfemur -30.6169 1.22304 19.7302
rtibia 40.6325
rfoot -7.4558 -11.2279
rtoes 2.49863
lfemur 2.91288 -2.06417 -27.6706
ltibia 21.7114
lfoot -16.109 1.22673
ltoes 0.165673
19
root 0.975088 17.913 -20.8639 -3.02992 -2.995 2.16308
lowerback 11.6012 -0.384477 -3.29258
upperback 0.271055 -0.853891 1.52321
thorax -6.16029 -0.299646 3.60945
lowerneck -18.2358 -2.40375 -2.05645
upperneck 19.8235 -2.78926 0.151791
head 9.28677 -1.44399 0.0227527
rclavicle -8.34896e-015 0
rhumerus -32.4351 -20.2674 -78.1204
rradius 25.2976
rwrist 4.17126
rhand -18.5282 24.0572
rfingers 7.12502
rthumb 7.76053 -5.78043
lclavicle -8.34896e-015 0
lhumerus -26.9052 -1.60833 80.6805
lradius 30.3423
lwrist 10.7352
lhand -31.3509 20.9375
lfingers 7.12502
lthumb -4.62193 50.8671
rfemur -30.6131 1.82658 19.4624
rtibia 37.4823
rfoot -6.95487 -11.6892
rtoes 2.65748
lfemur 3.62246 -2.00381 -27.6226
ltibia 20.9388
lfoot -16.278 0.982251
ltoes -0.341977
20
root 0.966153 17.9081 -20.6977 -2.65971 -2.68463 2.17932
lowerback 11.3011 -0.766494 -3.55232
upperback -0.0892476 -1.37147 1.81438
thorax -6.31647 -0.53143 4.14946
lowerneck -17.1142 -2.21182 -2.47553
upperneck 19.5519 -2.40557 0.0108408
head 8.9895 -1.31544 0.107961
rclavicle 1.47349e-014 7.95139e-016
rhumerus -32.9569 -19.4647 -77.7311
rradius 24.8883
rwrist 4.42224
rhand -18.4754 24.1892
rfingers 7.12502
rthumb 7.81148 -5.6465
lclavicle 1.47349e-014 7.95139e-016
lhumerus -27.5395 -0.848216 80.5985
lradius 30.7018
lwrist 10.5411
lhand -31.8184 20.8468
lfingers 7.12502
lthumb -5.07337 50.766
rfemur -30.6731 2.42571 19.0925
rtibia 34.3017
rfoot -6.62777 -12.172
rtoes 4.21849
lfemur 4.14681 -1.95638 -27.5817
ltibia 20.2169
lfoot -16.34 0.650646
ltoes -0.272457
21
root 0.95523 17.8958 -20.5353 -2.40425 -2.6278 2.29058
lowerback 11.2263 -1.18972 -4.11691
upperback -0.632361 -1.98383 2.24585
thorax -6.76079 -0.781943 5.04162
lowerneck -15.2189 -1.8413 -3.18615
upperneck 18.9216 -1.76102 -0.0711272
head 8.43177 -1.07377 0.297482
rclavicle 9.69075e-015 6.36111e-015
rhumerus -33.6751 -18.0516 -77.2332
rradius 24.333
rwrist 4.6311
rhand -18.5638 24.1364
rfingers 7.12502
rthumb 7.72621 -5.70245
lclavicle 9.69075e-015 6.36111e-015
lhumerus -28.7635 0.526336 80.4377
lradius 31.1128
lwrist 10.2859
lhand -32.1303 20.2345
lfingers 7.12502
lthumb -5.37453 50.1463
rfemur -30.5978 3.22357 18.602
rtibia 31.1024
rfoot -6.58499 -12.4749
rtoes 6.6366
lfemur 4.79258 -1.75364 -27.6626
ltibia 19.5363
lfoot -16.4718 0.484048
ltoes -0.487689
22
root 0.939903 17.8857 -20.3696 -2.37056 -2.89088 2.32853
lowerback 11.09 -0.676915 -3.61883
upperback -0.00775599 -1.26296 1.66827
thorax -6.1232 -0.484998 4.00679
lowerneck -17.3115 -2.31728 -2.31128
upperneck 19.2118 -2.6145 0.12621
head 8.90964 -1.38633 0.0935236
rclavicle 2.82523e-014 -7.95139e-015
rhumerus -33.0401 -20.7749 -77.3371
rradius 23.9981
rwrist 5.28424
rhand -18.2702 24.4978
rfingers 7.12502
rthumb 8.00954 -5.33042
lclavicle 2.82523e-014 -7.95139e-015
lhumerus -26.7368 -1.32019 80.1351
lradius 30.9745
lwrist 10.6149
lhand -32.2829 18.5746
lfingers 7.12502
lthumb -5.52187 48.4827
rfemur -30.2825 4.24269 18.2226
rtibia 27.9901
rfoot -6.64043 -12.6533
rtoes 1.54643
lfemur 5.6896 -1.3526 -27.6958
ltibia 18.8462
lfoot -16.6283 0.509901
ltoes -0.868227
23
root 0.922386 17.8783 -20.2051 -2.43852 -2.78723 2.33777
lowerback 11.288 -0.466873 -3.35873
upperback 0.287727 -0.972818 1.35787
thorax -5.95799 -0.363532 3.48395
lowerneck -18.678 -2.56629 -1.69867
upperneck 19.5922 -3.08481 0.0643226
head 9.28156 -1.56264 -0.109393
rclavicle -6.85807e-015 -1.98785e-015
rhumerus -32.9952 -22.2326 -77.3904
rradius 24.0139
rwrist 5.62531
rhand -17.9041 24.9177
rfingers 7.12502
rthumb 8.36288 -4.89678
lclavicle -6.85807e-015 -1.98785e-015
lhumerus -25.6541 -2.44039 79.9135
lradius 31.0182
lwrist 10.8268
lhand -32.3869 17.1303
lfingers 7.12502
lthumb -5.6223 47.0357
rfemur -29.7932 5.221 17.7425
rtibia 25.0412
rfoot -7.21144 -12.8992
rtoes 2.46662
lfemur 6.75239 -1.26751 -27.6774
ltibia 18.0535
lfoot -16.6013 0.453787
ltoes -1.23797
24
root 0.908633 17.8696 -20.0413 -2.34275 -2.39597 2.60713
lowerback 11.3874 -0.827239 -3.87971
upperback -0.0676196 -1.5146 1.56307
thorax -6.32699 -0.595331 4.09378
lowerneck -17.5695 -2.36488 -2.11773
upperneck 19.1449 -2.69384 -0.0153456
head 8.92897 -1.42386 0.000822133
rclavicle 2.48481e-017 -1.59028e-014
rhumerus -33.7366 -21.2377 -77.0246
rradius 23.8643
rwrist 5.87489
rhand -18.236 24.681
rfingers 7.12502
rthumb 8.04252 -5.14598
lclavicle 2.48481e-017 -1.59028e-014
lhumerus -26.2815 -1.52216 79.8177
lradius 31.0889
lwrist 10.6818
lhand -32.5079 16.3663
lfingers 7.12502
lthumb -5.73912 46.2685
rfemur -29.448 6.02802 16.8632
rtibia 22.2535
rfoot -8.63649 -13.0589
rtoes 6.66003
lfemur 7.69189 -1.25454 -27.9004
ltibia 17.1823
lfoot -16.4187 0.0970292
ltoes -1.23765
25
root 0.895347 17.8623 -19.8697 -2.16133 -2.19719 2.89109
lowerback 11.1377 -0.547343 -3.87192
upperback 0.228205 -1.15479 1.13978
thorax -5.91617 -0.441464 3.57058
lowerneck -18.8742 -2.70417 -1.34422
upperneck 19.4395 -3.3384 -0.0876359
head 9.25617 -1.67083 -0.255031
rclavicle 2.18912e-014 -1.15295e-014
rhumerus -33.7251 -23.391 -76.6961
rradius 23.4771
rwrist 6.69109
rhand -18.5801 24.2559
rfingers 7.12502
rthumb 7.71041 -5.58354
lclavicle 2.18912e-014 -1.15295e-014
lhumerus -24.964 -2.84234 79.6247
lradius 30.8874
lwrist 10.7805
lhand -32.6523 14.895
lfingers 7.12502
lthumb -5.87857 44.7935
rfemur -29.2157 6.81673 16.014
rtibia 19.6784
rfoot -9.12478 -12.8143
rtoes 6.82629
lfemur 8.53902 -1.21811 -28.1649
ltibia 16.3826
lfoot -16.2052 -0.119794
ltoes -1.07365
